{
  "accessors": [
    {
      "bufferView": 2,
      "componentType": 5126,
      "count": 4,
      "max": [
        0.10898400098085403,
        2.2904419898986816,
        -0.25905901193618774
      ],
      "min": [
        -2.58597993850708,
        1.1684490442276,
        -0.6774510145187378
      ],
      "type": "VEC3"
    },
    {
      "bufferView": 1,
      "componentType": 5126,
      "count": 4,
      "max": [
        0.0,
        0.0
      ],
      "min": [
        0.0,
        0.0
      ],
      "type": "VEC2"
    },
    {
      "bufferView": 0,
      "componentType": 5125,
      "count": 4,
      "type": "SCALAR"
    },
    {
      "bufferView": 2,
      "byteOffset": 48,
      "componentType": 5126,
      "count": 65532,
      "max": [
        2.955137014389038,
        3.050668954849243,
        2.879930019378662
      ],
      "min": [
        -2.652959108352661,
        -3.394300937652588,
        -2.4310600757598877
      ],
      "type": "VEC3"
    },
    {
      "bufferView": 2,
      "byteOffset": 786432,
      "componentType": 5126,
      "count": 65532,
      "max": [
        0.9999597072601318,
        0.9999425411224365,
        0.9999582767486572
      ],
      "min": [
        -0.9999996423721313,
        -0.9999352693557739,
        -1.0
      ],
      "type": "VEC3"
    },
    {
      "bufferView": 1,
      "byteOffset": 32,
      "componentType": 5126,
      "count": 65532,
      "max": [
        0.999983012676239,
        0.9999750256538391
      ],
      "min": [
        0.0,
        0.0
      ],
      "type": "VEC2"
    },
    {
      "bufferView": 0,
      "byteOffset": 16,
      "componentType": 5125,
      "count": 255249,
      "type": "SCALAR"
    },
    {
      "bufferView": 2,
      "byteOffset": 1572816,
      "componentType": 5126,
      "count": 40875,
      "max": [
        2.9371869564056396,
        3.057060956954956,
        2.856511116027832
      ],
      "min": [
        -2.6462490558624268,
        -3.290299892425537,
        -2.4308478832244873
      ],
      "type": "VEC3"
    },
    {
      "bufferView": 2,
      "byteOffset": 2063316,
      "componentType": 5126,
      "count": 40875,
      "max": [
        0.9999985694885254,
        0.9999425411224365,
        0.9998995065689087
      ],
      "min": [
        -0.999985933303833,
        -0.9994996190071106,
        -0.9996041655540466
      ],
      "type": "VEC3"
    },
    {
      "bufferView": 1,
      "byteOffset": 524288,
      "componentType": 5126,
      "count": 40875,
      "max": [
        1.0,
        1.0
      ],
      "min": [
        0.0,
        0.0
      ],
      "type": "VEC2"
    },
    {
      "bufferView": 0,
      "byteOffset": 1021012,
      "componentType": 5125,
      "count": 109155,
      "type": "SCALAR"
    }
  ],
  "asset": {
    "extras": {
      "author": "3 EIXOS (https://sketchfab.com/3Eixos.xyz)",
      "license": "CC-BY-4.0 (http://creativecommons.org/licenses/by/4.0/)",
      "source": "https://sketchfab.com/3d-models/caveira-pirata-pirate-skull-6e1cd5e9352a457896f8c9b8ccea9d28",
      "title": "Caveira Pirata - Pirate Skull"
    },
    "generator": "Sketchfab-12.68.0",
    "version": "2.0"
  },
  "bufferViews": [
    {
      "buffer": 0,
      "byteLength": 1457632,
      "name": "floatBufferViews",
      "target": 34963
    },
    {
      "buffer": 0,
      "byteLength": 851288,
      "byteOffset": 1457632,
      "byteStride": 8,
      "name": "floatBufferViews",
      "target": 34962
    },
    {
      "buffer": 0,
      "byteLength": 2553816,
      "byteOffset": 2308920,
      "byteStride": 12,
      "name": "floatBufferViews",
      "target": 34962
    }
  ],
  "buffers": [
    {
      "byteLength": 4862736,
      "uri": "scene.bin"
    }
  ],
  "images": [
    {
      "uri": "textures/Scene_-_Root_baseColor.png"
    },
    {
      "uri": "textures/Scene_-_Root_metallicRoughness.png"
    }
  ],
  "materials": [
    {
      "doubleSided": true,
      "name": "Scene_-_Root",
      "pbrMetallicRoughness": {
        "baseColorTexture": {
          "index": 0
        },
        "metallicFactor": 0.00807132361070165,
        "metallicRoughnessTexture": {
          "index": 1
        },
        "roughnessFactor": 0.24706503430252555
      }
    }
  ],
  "meshes": [
    {
      "name": "Object_0",
      "primitives": [
        {
          "attributes": {
            "POSITION": 0,
            "TEXCOORD_0": 1
          },
          "indices": 2,
          "material": 0,
          "mode": 1
        }
      ]
    },
    {
      "name": "Object_1",
      "primitives": [
        {
          "attributes": {
            "NORMAL": 4,
            "POSITION": 3,
            "TEXCOORD_0": 5
          },
          "indices": 6,
          "material": 0,
          "mode": 4
        }
      ]
    },
    {
      "name": "Object_2",
      "primitives": [
        {
          "attributes": {
            "NORMAL": 8,
            "POSITION": 7,
            "TEXCOORD_0": 9
          },
          "indices": 10,
          "material": 0,
          "mode": 4
        }
      ]
    }
  ],
  "nodes": [
    {
      "children": [
        1
      ],
      "matrix": [
        0.04641268402338028,
        0.0,
        0.0,
        0.0,
        0.0,
        1.0305686087481787e-17,
        -0.04641268402338028,
        0.0,
        0.0,
        0.04641268402338028,
        1.0305686087481787e-17,
        0.0,
        0.0,
        0.0,
        0.0,
        1.0
      ],
      "name": "Sketchfab_model"
    },
    {
      "children": [
        2,
        3,
        4
      ],
      "name": "Caveira_Pirata_lowpoly.obj.cleaner.materialmerger.gles"
    },
    {
      "mesh": 0,
      "name": "Object_2"
    },
    {
      "mesh": 1,
      "name": "Object_3"
    },
    {
      "mesh": 2,
      "name": "Object_4"
    }
  ],
  "samplers": [
    {
      "magFilter": 9729,
      "minFilter": 9987,
      "wrapS": 10497,
      "wrapT": 10497
    }
  ],
  "scene": 0,
  "scenes": [
    {
      "name": "Sketchfab_Scene",
      "nodes": [
        0
      ]
    }
  ],
  "textures": [
    {
      "sampler": 0,
      "source": 0
    },
    {
      "sampler": 0,
      "source": 1
    }
  ]
}
